<svg width="352" height="550" viewBox="0 0 352 550" fill="none" xmlns="http://www.w3.org/2000/svg">
<path d="M0.640533 0.358765C39.99 0.358765 78.9541 8.10922 115.308 23.1676C151.662 38.226 184.695 60.2974 212.519 88.1217C240.343 115.946 262.415 148.978 277.473 185.332C292.531 221.686 300.282 260.651 300.282 300L0.640533 300V0.358765Z" fill="#A577D1" fill-opacity="0.56"/>
<path d="M22.806 338.584C22.806 307.449 35.1743 277.59 57.1899 255.574C79.2054 233.559 109.065 221.19 140.2 221.19V338.584L22.806 338.584Z" fill="#F3E8FF"/>
<mask id="path-3-inside-1_1_742" fill="white">
<path d="M153.335 467.471C137.919 467.471 122.653 464.434 108.41 458.535C94.1675 452.635 81.2261 443.988 70.3251 433.087C59.4241 422.186 50.7769 409.245 44.8773 395.002C38.9778 380.759 35.9413 365.493 35.9413 350.077C35.9413 334.661 38.9778 319.395 44.8774 305.152C50.777 290.91 59.4241 277.968 70.3251 267.067C81.2262 256.166 94.1675 247.519 108.41 241.619C122.653 235.72 137.919 232.683 153.335 232.683L153.335 350.077L153.335 467.471Z"/>
</mask>
<path d="M153.335 467.471C137.919 467.471 122.653 464.434 108.41 458.535C94.1675 452.635 81.2261 443.988 70.3251 433.087C59.4241 422.186 50.7769 409.245 44.8773 395.002C38.9778 380.759 35.9413 365.493 35.9413 350.077C35.9413 334.661 38.9778 319.395 44.8774 305.152C50.777 290.91 59.4241 277.968 70.3251 267.067C81.2262 256.166 94.1675 247.519 108.41 241.619C122.653 235.72 137.919 232.683 153.335 232.683L153.335 350.077L153.335 467.471Z" stroke="#6D30A8" stroke-width="10" mask="url(#path-3-inside-1_1_742)"/>
<mask id="path-4-inside-2_1_742" fill="white">
<path d="M153.334 548.743C114.041 548.743 75.6311 537.092 42.9606 515.262C10.2901 493.432 -15.1735 462.405 -30.2101 426.103C-45.2467 389.802 -49.1809 349.857 -41.5153 311.319C-33.8497 272.782 -14.9286 237.383 12.8554 209.599C40.6394 181.815 76.0383 162.894 114.576 155.228C153.113 147.563 193.058 151.497 229.36 166.533C265.661 181.57 296.689 207.034 318.519 239.704C340.348 272.375 352 310.785 352 350.077L153.334 350.077L153.334 548.743Z"/>
</mask>
<path d="M153.334 548.743C114.041 548.743 75.6311 537.092 42.9606 515.262C10.2901 493.432 -15.1735 462.405 -30.2101 426.103C-45.2467 389.802 -49.1809 349.857 -41.5153 311.319C-33.8497 272.782 -14.9286 237.383 12.8554 209.599C40.6394 181.815 76.0383 162.894 114.576 155.228C153.113 147.563 193.058 151.497 229.36 166.533C265.661 181.57 296.689 207.034 318.519 239.704C340.348 272.375 352 310.785 352 350.077L153.334 350.077L153.334 548.743Z" stroke="#844DB9" stroke-opacity="0.44" stroke-width="6" mask="url(#path-4-inside-2_1_742)"/>
</svg>
