<svg width="682" height="523" viewBox="0 0 682 523" fill="none" xmlns="http://www.w3.org/2000/svg">
<mask id="path-1-inside-1_1_747" fill="white">
<path d="M554.942 88.5754C567.211 88.5754 579.359 90.9919 590.694 95.687C602.029 100.382 612.328 107.264 621.003 115.939C629.679 124.614 636.56 134.913 641.255 146.248C645.95 157.583 648.367 169.731 648.367 182C648.367 194.269 645.95 206.417 641.255 217.752C636.56 229.087 629.679 239.386 621.003 248.061C612.328 256.737 602.029 263.618 590.694 268.313C579.359 273.008 567.211 275.425 554.942 275.425L554.942 182V88.5754Z"/>
</mask>
<path d="M554.942 88.5754C567.211 88.5754 579.359 90.9919 590.694 95.687C602.029 100.382 612.328 107.264 621.003 115.939C629.679 124.614 636.56 134.913 641.255 146.248C645.95 157.583 648.367 169.731 648.367 182C648.367 194.269 645.95 206.417 641.255 217.752C636.56 229.087 629.679 239.386 621.003 248.061C612.328 256.737 602.029 263.618 590.694 268.313C579.359 273.008 567.211 275.425 554.942 275.425L554.942 182V88.5754Z" stroke="#6D30A8" stroke-width="10" mask="url(#path-1-inside-1_1_747)"/>
<path d="M682 182C682 272.439 646.073 359.173 582.124 423.123C518.174 487.073 431.439 523 341 523L341 182H682Z" fill="#A577D1" fill-opacity="0.51"/>
<mask id="path-3-inside-2_1_747" fill="white">
<path d="M554.943 72.6931C569.42 72.6931 583.756 75.5446 597.131 81.0847C610.506 86.6249 622.659 94.7452 632.895 104.982C643.132 115.219 651.253 127.372 656.793 140.747C662.333 154.122 665.184 168.457 665.184 182.934C665.184 197.411 662.333 211.747 656.793 225.122C651.253 238.497 643.132 250.65 632.895 260.886C622.659 271.123 610.506 279.244 597.131 284.784C583.755 290.324 569.42 293.175 554.943 293.175L554.943 182.934V72.6931Z"/>
</mask>
<path d="M554.943 72.6931C569.42 72.6931 583.756 75.5446 597.131 81.0847C610.506 86.6249 622.659 94.7452 632.895 104.982C643.132 115.219 651.253 127.372 656.793 140.747C662.333 154.122 665.184 168.457 665.184 182.934C665.184 197.411 662.333 211.747 656.793 225.122C651.253 238.497 643.132 250.65 632.895 260.886C622.659 271.123 610.506 279.244 597.131 284.784C583.755 290.324 569.42 293.175 554.943 293.175L554.943 182.934V72.6931Z" stroke="white" stroke-width="6" mask="url(#path-3-inside-2_1_747)"/>
<path d="M554.943 105.392C565.126 105.392 575.209 107.398 584.617 111.294C594.025 115.191 602.573 120.903 609.774 128.104C616.974 135.304 622.686 143.852 626.583 153.26C630.48 162.668 632.486 172.751 632.486 182.934C632.486 193.117 630.48 203.201 626.583 212.609C622.686 222.016 616.974 230.565 609.774 237.765C602.573 244.966 594.025 250.677 584.617 254.574C575.209 258.471 565.126 260.477 554.943 260.477L554.943 182.934V105.392Z" fill="#C080FF"/>
</svg>
